<?xml version="1.0" encoding="utf-8"?>
<svg version="1.1" id="Layer_1" xmlns="http://www.w3.org/2000/svg" xmlns:xlink="http://www.w3.org/1999/xlink" x="0px" y="0px"
	 viewBox="0 0 360 360" enable-background="new 0 0 360 360" xml:space="preserve">
<linearGradient id="SVGID_1_" gradientUnits="userSpaceOnUse" x1="236.3735" y1="239.6757" x2="448.2857" y2="239.6757" gradientTransform="matrix(0.9886 0.5116 -0.4597 0.8881 0.2469 -172.6332)">
	<stop  offset="0" style="stop-color:#000000;stop-opacity:0.3"/>
	<stop  offset="0.7425" style="stop-color:#001000;stop-opacity:0"/>
</linearGradient>
<polygon fill="url(#SVGID_1_)" points="241.5,365.4 138.1,289.7 144.2,281.4 144.2,267.5 220.5,243.5 144.2,121.6 216,74.5 
	214.8,65 376.8,185.4 "/>
<path fill="#FFFFFF" d="M193.5,164.2c-11.1-5.3-18.6-9.2-22.4-11.8c-4.3-2.8-7.5-5.8-9.7-8.8c-2.2-3.1-3.3-6.6-3.3-10.5
	c0-7.1,2.5-12.4,7.4-16c5-3.6,9.9-4.8,21.5-5.4c1.3-0.1,9,0,17.7-0.1c2,0,4.3,0,6.6,0l0,0l0,11.9c0,1.1,0.9,1.7,1.6,1.2l39.4-29.6
	c0.7-0.5,0.7-1.9,0-2.4l-39.6-29.3c-0.7-0.5-1.6,0.1-1.6,1.2l0,12.4c-7.8-0.1-17.7,0.2-20.8,0.2c-23.3,0.1-41.6,4.6-54.6,15.1
	c-13,10.5-19.5,24.8-19.4,42.9c0,13.1,3.6,24.1,10.6,33.1c7,9,19.9,18,38.7,26.9c0.4,0.2,0.7,0.3,1.1,0.5
	c11.1,5.3,18.6,9.2,22.4,11.8c4.3,2.8,7.5,5.8,9.7,8.8c2.2,3.1,3.3,6.6,3.3,10.5c0,7.1-2.5,12.4-7.4,16c-5,3.6-9.9,4.8-21.5,5.4
	c-1.3,0.1-9,0-17.7,0.1c-2,0-4.3,0-6.6,0l0,0l0-11.9c0-1.1-0.9-1.7-1.6-1.2l-39.4,29.6c-0.7,0.5-0.7,1.9,0,2.4l39.6,29.3
	c0.7,0.5,1.6-0.1,1.6-1.2l0-12.4c7.8,0.1,17.7-0.2,20.8-0.2c23.3-0.1,41.6-4.6,54.6-15.1c13-10.5,19.5-24.8,19.4-42.9
	c0-13.1-3.6-24.1-10.6-33.1c-7-9-19.9-18-38.7-26.9C194.2,164.5,193.8,164.4,193.5,164.2z"/>
</svg>
